<mxfile host="app.diagrams.net" modified="2023-06-14T10:27:23.281Z" agent="Mozilla/5.0 (Windows NT 10.0; Win64; x64) AppleWebKit/537.36 (KHTML, like Gecko) Chrome/114.0.0.0 Safari/537.36" version="21.3.8" etag="aSd9LkP9vQQcF0U8xe_2" type="github">
  <diagram name="Page-1" id="jrKQkAIhfW6B3fKMDVIr">
    <mxGraphModel>
      <root>
        <mxCell id="0" />
        <mxCell id="1" parent="0" />
      </root>
    </mxGraphModel>
  </diagram>
</mxfile>
